<?xml version="1.0" standalone="no"?>
<!DOCTYPE svg PUBLIC "-//W3C//DTD SVG 20010904//EN"
 "http://www.w3.org/TR/2001/REC-SVG-20010904/DTD/svg10.dtd">
<svg version="1.0" xmlns="http://www.w3.org/2000/svg"
 width="400.000000pt" height="400.000000pt" viewBox="0 0 400.000000 400.000000"
 preserveAspectRatio="xMidYMid meet">

<g transform="translate(0.000000,400.000000) scale(0.100000,-0.100000)"
fill="#000000" stroke="none">
<path d="M0 3638 l0 -362 47 45 c32 31 100 73 203 126 495 256 609 313 626
313 14 0 52 -44 130 -152 60 -83 112 -157 116 -164 7 -10 -28 -147 -117 -463
l-23 -84 206 7 c114 3 270 9 348 13 l140 6 57 145 c31 80 54 149 50 152 -5 4
-36 17 -70 30 -35 12 -63 26 -63 30 0 4 38 33 85 64 47 32 85 59 85 61 0 2
-55 -19 -122 -46 -67 -27 -126 -49 -130 -49 -17 0 -261 144 -251 147 6 2 56
-8 111 -22 l101 -25 118 16 c65 9 121 20 125 23 5 4 -159 97 -211 119 -3 1
-35 -21 -69 -49 -35 -28 -65 -49 -68 -47 -2 3 21 65 51 139 l55 134 198 68
197 67 135 -36 c182 -49 176 -48 202 -30 33 23 75 20 103 -9 28 -27 32 -61 11
-91 -13 -18 -11 -30 19 -115 19 -52 64 -179 100 -284 37 -104 71 -202 77 -216
9 -25 11 -26 56 -17 26 6 48 11 49 12 1 1 9 69 18 153 l16 152 -21 21 c-29 29
-24 77 13 104 l28 21 37 -20 c34 -19 41 -19 99 -7 l62 14 7 44 c7 50 36 97 77
128 23 17 43 21 103 21 70 0 87 6 64 20 -17 11 -11 64 10 85 39 39 120 12 120
-39 0 -13 37 -44 121 -102 104 -70 125 -80 140 -70 34 21 78 13 111 -20 28
-27 30 -34 24 -77 -6 -46 -6 -46 86 -166 51 -67 118 -154 150 -195 l58 -74 0
457 0 456 -2000 0 -2000 0 0 -362z"/>
<path d="M2277 3792 c-21 -23 -22 -56 -1 -76 34 -34 84 -11 84 39 0 51 -50 73
-83 37z"/>
<path d="M1752 3781 c-23 -14 -9 -45 23 -52 17 -3 59 -21 95 -39 56 -28 77
-34 150 -36 l85 -3 3 -91 3 -90 33 0 c33 0 34 2 80 107 39 90 44 109 33 122
-7 9 -18 27 -24 41 -8 20 -23 29 -64 39 -39 10 -54 11 -57 2 -5 -15 -166 -15
-191 1 -15 9 -23 9 -36 -2 -34 -28 -11 -35 109 -31 l117 3 -3 -38 -3 -39 -71
-3 c-66 -3 -78 0 -153 37 -45 22 -90 49 -99 60 -11 14 -22 18 -30 12z"/>
<path d="M3275 3720 c-3 -5 -17 -10 -31 -10 -30 0 -30 -1 2 -47 14 -21 28 -50
31 -64 5 -25 8 -26 96 -33 130 -9 157 -8 157 7 -1 15 -210 157 -232 157 -9 0
-20 -4 -23 -10z"/>
<path d="M3043 3684 c-47 -23 -73 -71 -73 -132 0 -43 5 -57 31 -87 58 -66 160
-68 213 -4 102 121 -30 292 -171 223z"/>
<path d="M2272 3618 c-16 -35 -37 -84 -47 -110 l-17 -47 26 -31 c31 -38 36
-106 9 -146 l-16 -25 119 -120 c65 -65 123 -119 129 -119 5 0 24 11 40 24 l30
24 -52 149 c-148 427 -160 458 -177 461 -12 3 -24 -14 -44 -60z"/>
<path d="M785 3637 c-22 -13 -139 -74 -260 -137 -121 -62 -234 -121 -251 -131
-18 -10 -45 -19 -60 -21 -18 -2 -30 -10 -32 -21 -5 -26 26 -32 51 -10 19 17
597 323 610 323 10 0 57 -101 52 -110 -3 -4 -40 -27 -83 -50 -42 -24 -79 -44
-81 -46 -2 -2 9 -24 24 -49 21 -37 24 -49 14 -61 -19 -23 4 -64 35 -64 49 0
59 74 12 86 -25 6 -63 72 -49 84 14 13 144 82 147 78 19 -21 35 -72 30 -95 -7
-34 14 -56 47 -51 48 7 50 69 2 76 -13 2 -37 36 -77 112 -38 74 -63 110 -74
110 -9 0 -35 -11 -57 -23z m223 -234 c5 -17 -26 -29 -40 -15 -6 6 -7 15 -3 22
9 14 37 9 43 -7z m-180 -100 c-2 -10 -10 -18 -18 -18 -8 0 -16 8 -18 18 -2 12
3 17 18 17 15 0 20 -5 18 -17z"/>
<path d="M804 3576 c-3 -8 -81 -54 -172 -102 -92 -48 -185 -97 -207 -109 -167
-91 -356 -185 -373 -185 -23 0 -47 -25 -37 -40 10 -16 39 -12 56 9 9 10 97 60
195 111 99 51 255 134 349 183 93 50 183 93 200 97 21 4 30 12 30 25 0 24 -33
33 -41 11z"/>
<path d="M3277 3511 c-16 -76 -124 -144 -198 -124 -40 10 -40 10 -63 -31 -115
-199 -176 -308 -176 -315 0 -4 11 -18 24 -31 l25 -23 38 30 c21 16 167 130
325 252 288 222 310 244 254 255 -11 3 -67 7 -122 11 l-101 6 -6 -30z"/>
<path d="M2875 3485 c-27 -8 -53 -14 -58 -15 -4 0 -12 -11 -17 -25 -5 -14 -20
-30 -33 -36 -23 -10 -25 -19 -36 -141 -7 -72 -14 -143 -17 -158 -5 -25 -3 -28
41 -40 27 -7 49 -9 54 -4 5 5 52 85 105 178 l96 169 -30 30 c-17 17 -30 37
-30 44 0 16 -11 16 -75 -2z"/>
<path d="M1990 3445 c-10 -12 -10 -19 -2 -27 17 -17 17 -849 0 -866 -9 -10 -8
-16 5 -29 16 -16 18 -16 34 -1 13 14 14 20 4 32 -9 11 -12 123 -10 457 0 272
-3 445 -9 447 -5 1 -15 -4 -22 -13z"/>
<path d="M3232 3212 c-174 -135 -318 -246 -320 -247 -8 -6 44 -95 55 -95 7 0
152 29 321 65 169 36 319 68 335 71 15 3 27 12 27 20 0 36 34 95 67 115 50 31
124 23 166 -19 25 -25 31 -41 35 -87 5 -56 4 -56 -40 -99 l-45 -43 52 -289
c29 -159 60 -333 69 -386 13 -69 22 -98 32 -98 12 0 14 71 14 455 l0 456 -164
212 -163 212 -62 1 -62 1 -317 -245z"/>
<path d="M1910 3225 c-7 -8 -10 -18 -7 -21 3 -3 -13 -45 -35 -92 -84 -183 -96
-209 -118 -259 l-22 -53 -428 0 -428 0 -36 98 c-25 69 -34 108 -30 129 4 21 1
35 -11 46 -22 22 -38 21 -59 -2 -23 -25 -13 -59 18 -67 19 -4 31 -26 63 -112
l40 -107 440 -3 441 -2 22 47 c13 27 33 71 45 98 13 28 41 90 64 138 23 49 41
92 41 97 0 5 9 15 21 24 21 14 23 46 3 53 -6 2 -17 -3 -24 -12z m-1120 -180
c0 -21 -19 -28 -36 -15 -10 9 -11 16 -3 26 12 15 39 8 39 -11z"/>
<path d="M2184 3226 c-3 -7 13 -138 35 -290 23 -152 41 -280 41 -285 0 -4 18
-15 40 -25 29 -12 44 -14 57 -7 43 24 43 25 28 66 -17 47 -19 135 -5 185 5 20
23 56 39 82 l29 45 -122 122 c-67 66 -125 121 -129 121 -4 0 -10 -6 -13 -14z"/>
<path d="M2108 2908 c-3 -178 -4 -324 -3 -326 1 -2 18 -5 36 -8 30 -5 37 -1
61 29 l26 34 -39 269 c-46 319 -47 324 -63 324 -10 0 -14 -70 -18 -322z"/>
<path d="M522 3198 c-21 -21 -14 -56 15 -70 22 -11 44 -57 150 -323 68 -170
130 -315 138 -321 17 -13 289 -18 416 -8 l85 6 50 94 49 94 124 0 c101 0 128
-3 142 -16 41 -37 100 16 63 57 -22 25 -51 24 -66 -1 -12 -18 -24 -20 -144
-20 l-131 0 -49 -95 -49 -95 -115 -1 c-63 0 -169 -2 -234 -2 -67 -1 -124 2
-131 8 -7 6 -67 148 -134 317 -101 253 -121 310 -112 327 14 25 14 27 -5 45
-18 19 -45 21 -62 4z m46 -31 c2 -12 -3 -17 -17 -17 -12 0 -21 6 -21 13 0 31
32 34 38 4z m1169 -473 c8 -21 -13 -42 -28 -27 -13 13 -5 43 11 43 6 0 13 -7
17 -16z"/>
<path d="M3763 3118 c-66 -17 -87 -99 -40 -154 18 -21 32 -27 65 -27 48 0 70
15 89 61 12 30 12 38 -4 70 -22 44 -64 63 -110 50z"/>
<path d="M1911 3097 c-6 -6 -11 -17 -11 -23 0 -7 -19 -52 -42 -101 l-43 -88
-5 -274 -5 -274 -75 -1 -75 -1 -3 -112 c-2 -104 -4 -113 -22 -113 -18 0 -20 9
-22 113 l-3 112 -630 0 -630 0 -3 23 -3 22 600 0 600 0 23 30 c19 26 28 30 69
30 29 0 51 -6 59 -15 16 -19 54 -19 70 0 16 19 9 45 -16 61 -18 13 -24 12 -47
-6 -18 -14 -40 -20 -79 -20 -50 0 -54 -2 -65 -30 l-11 -30 -606 0 c-436 0
-607 -3 -612 -11 -6 -10 -7 -326 -1 -384 2 -15 -5 -21 -26 -23 l-27 -3 2 -167
3 -167 28 -3 27 -3 0 -183 c0 -151 -3 -186 -15 -196 -31 -26 -11 -70 32 -70
29 0 48 33 33 59 -5 11 -14 21 -19 23 -8 2 -15 242 -11 356 0 6 11 12 25 12
l25 0 -2 168 -3 167 -27 3 -28 3 0 153 c0 156 5 176 41 176 12 0 15 -6 11 -25
-5 -28 20 -44 41 -27 7 6 214 13 555 17 l543 8 -3 -89 c-4 -108 -22 -119 -26
-16 -2 60 -6 72 -20 72 -9 0 -241 1 -515 3 -471 2 -497 1 -497 -16 0 -20 32
-36 38 -19 2 7 17 12 33 12 27 0 28 -2 17 -20 -18 -28 4 -50 32 -32 15 9 123
12 425 12 l405 0 0 -29 c0 -39 -9 -61 -25 -61 -21 0 -27 17 -13 39 15 25 -1
47 -27 37 -13 -4 -15 -13 -10 -36 5 -23 3 -32 -10 -36 -20 -8 -42 10 -26 20
15 10 14 43 -2 49 -26 10 -40 -9 -32 -42 7 -31 6 -31 -34 -31 l-41 0 0 -45 0
-45 -82 0 -83 0 -25 37 c-14 20 -27 45 -30 57 -7 25 -50 36 -50 12 0 -8 24
-40 53 -70 l53 -56 83 0 c80 0 82 -1 79 -22 -3 -22 -8 -23 -93 -26 l-90 -3
-43 56 -43 55 -62 0 c-34 0 -69 4 -77 10 -9 5 -19 5 -27 -2 -8 -6 -31 -8 -56
-5 -23 3 -49 2 -56 -2 -8 -5 -26 -5 -43 1 -15 6 -36 7 -46 2 -25 -11 -52 -13
-58 -3 -11 18 -44 9 -44 -10 0 -28 14 -34 53 -23 19 6 41 6 49 1 9 -5 29 -4
47 2 24 8 35 8 47 -1 12 -11 20 -10 40 0 20 11 31 12 57 2 20 -8 35 -8 41 -2
6 6 36 10 67 10 l58 0 43 -55 43 -55 97 0 c91 0 98 -1 98 -20 0 -19 -7 -20
-109 -20 l-110 0 -21 30 -21 30 -110 0 -109 0 -27 -31 -28 -31 -98 4 c-79 4
-100 2 -104 -9 -9 -24 14 -40 37 -25 11 7 55 12 102 12 82 0 83 1 100 30 l17
30 105 0 105 0 23 -30 22 -30 113 0 c103 0 113 -2 113 -18 0 -18 -16 -19 -282
-25 -255 -5 -283 -4 -294 11 -16 21 -49 5 -49 -24 0 -15 6 -18 25 -15 14 2
154 6 313 8 284 4 287 4 287 -17 0 -19 -5 -20 -180 -20 l-180 0 0 -79 c0 -70
-2 -79 -20 -84 -18 -5 -20 -14 -20 -96 0 -84 1 -91 20 -91 22 0 26 -20 8 -38
-10 -9 -8 -16 5 -29 16 -16 18 -16 34 0 13 13 15 20 5 29 -17 17 -15 38 3 38
12 0 15 17 15 95 0 78 -3 95 -15 95 -12 0 -15 14 -15 70 l0 70 170 0 c143 0
170 -2 170 -15 0 -12 -22 -15 -117 -17 l-118 -3 -3 -52 c-3 -46 -6 -53 -23
-53 -18 0 -20 -5 -15 -37 3 -21 5 -64 6 -95 0 -45 3 -58 15 -58 12 0 15 -13
15 -60 l0 -60 205 0 205 0 0 141 c0 128 2 140 18 137 15 -3 17 -20 20 -162 l3
-158 -113 3 c-101 3 -113 2 -116 -14 -4 -21 25 -34 41 -18 7 7 49 11 109 11
l98 0 2 168 c3 141 5 167 18 167 12 0 16 -20 18 -109 2 -70 -1 -113 -9 -122
-16 -19 -4 -44 21 -44 25 0 37 25 21 44 -8 9 -11 52 -9 122 2 89 6 109 18 109
12 0 15 -22 18 -129 2 -85 -1 -133 -9 -142 -15 -18 -4 -44 19 -44 17 0 17 11
14 161 -4 134 -2 161 9 157 11 -4 14 -42 15 -184 1 -175 1 -179 22 -182 16 -2
22 2 22 15 0 11 -5 24 -10 29 -7 7 -9 69 -8 165 3 129 5 154 18 154 13 0 15
-29 18 -189 l2 -189 31 -34 30 -34 -3 -131 -3 -131 -100 2 -100 2 -36 41 -36
41 -130 -6 c-91 -4 -134 -2 -142 6 -8 8 -16 7 -28 -6 -30 -29 -5 -39 68 -28
35 6 101 11 146 11 l82 0 32 -40 33 -41 115 3 116 3 3 134 c3 132 3 133 22
116 18 -16 20 -31 20 -155 l0 -137 125 -123 c122 -121 125 -125 125 -167 l0
-44 -93 4 c-51 2 -98 6 -104 10 -7 4 -21 2 -32 -5 -15 -9 -25 -9 -45 0 -20 9
-32 9 -51 0 -19 -8 -28 -8 -40 2 -13 11 -20 11 -40 0 -20 -11 -27 -11 -40 0
-13 11 -19 11 -32 -2 -28 -29 -6 -35 119 -33 68 2 128 -1 134 -6 8 -6 22 -5
39 3 21 9 31 9 47 -1 14 -9 23 -9 32 -2 15 12 93 18 103 7 11 -11 -8 -23 -113
-70 -91 -41 -103 -45 -131 -34 -25 9 -35 9 -48 -2 -21 -17 -16 -49 12 -67 20
-13 24 -12 52 14 16 16 79 51 140 78 l111 50 -3 420 -2 419 -128 104 -128 104
3 51 c3 51 4 52 36 55 26 3 32 7 32 28 0 21 4 24 40 24 l40 0 0 -61 c0 -57 3
-63 43 -110 42 -50 61 -59 69 -36 8 19 -2 37 -21 37 -9 0 -29 13 -44 28 -23
24 -27 37 -27 85 0 53 2 57 23 57 13 0 28 -5 34 -11 24 -24 30 4 30 127 l-1
126 -25 -6 c-55 -13 -122 -15 -147 -6 -46 18 -14 30 77 30 l89 0 0 84 c0 47 5
88 10 91 5 3 10 15 10 26 0 15 -6 20 -22 17 -21 -3 -22 -7 -19 -101 l3 -98
-84 3 c-76 3 -83 5 -86 25 -2 12 -40 61 -85 109 l-81 87 -1 96 0 96 83 3 82 3
0 275 0 274 45 91 c25 49 52 92 60 96 19 7 20 39 1 46 -7 3 -19 0 -25 -6z
m-163 -644 c5 -18 -28 -29 -38 -12 -5 7 -6 17 -3 22 7 12 35 5 41 -10z m-150
-198 c5 -92 -5 -145 -28 -145 -17 0 -20 9 -22 93 l-3 92 -540 -4 c-304 -2
-551 0 -565 5 -31 11 336 20 815 19 l340 0 3 -60z m-123 -85 c0 -58 -2 -65
-20 -65 -17 0 -20 7 -20 50 l0 50 -425 5 c-234 3 -427 8 -430 10 -4 4 628 15
840 15 l55 0 0 -65z m-155 -298 c0 -116 12 -142 65 -142 57 0 65 18 65 136 0
86 3 104 15 104 12 0 15 -19 15 -109 0 -127 -10 -149 -75 -157 -91 -12 -115
24 -115 179 0 71 3 87 15 87 12 0 15 -18 15 -98z m381 79 c13 -11 21 -23 16
-27 -4 -4 -13 -2 -19 4 -13 13 -67 16 -84 4 -45 -30 -45 -164 0 -194 18 -13
54 -9 70 7 17 18 39 20 34 3 -2 -6 -16 -21 -30 -31 -20 -15 -35 -18 -63 -13
-31 6 -40 14 -56 49 -31 70 -19 172 24 202 30 21 80 19 108 -4z m-1321 -141
l0 -150 -45 0 -45 0 0 150 0 150 45 0 45 0 0 -150z m1604 14 c34 -13 2 -24
-69 -24 -68 0 -94 8 -78 24 8 8 126 8 147 0z m5 -58 c16 -19 -6 -26 -84 -26
-62 0 -83 9 -70 30 10 16 140 13 154 -4z m-3 -50 c17 -13 17 -15 3 -21 -25
-10 -154 -1 -152 10 2 6 29 13 60 16 32 3 61 6 64 7 3 1 14 -4 25 -12z m-786
-46 c0 -16 -7 -20 -37 -21 -21 -1 -47 -2 -58 -3 -13 -1 -21 -9 -23 -23 -2 -13
-10 -23 -18 -23 -11 0 -14 -19 -14 -95 0 -76 3 -95 14 -95 9 0 16 -12 18 -32
l3 -33 112 -3 112 -3 3 113 c2 93 6 113 18 113 12 0 15 -22 18 -127 l3 -128
-186 0 -185 0 0 50 c0 38 4 50 15 50 12 0 15 17 15 95 0 78 -3 95 -15 95 -11
0 -15 12 -15 45 l0 45 110 0 c103 0 110 -1 110 -20z m788 -17 c3 -10 -16 -13
-72 -13 -62 0 -76 3 -76 15 0 13 12 15 72 13 46 -2 73 -7 76 -15z m-780 -55
c3 -25 8 -28 38 -28 19 0 37 -6 39 -12 3 -7 6 -53 8 -103 l2 -90 -97 -3 -98
-3 0 26 c0 16 6 25 15 25 12 0 15 17 15 95 0 78 -3 95 -15 95 -8 0 -15 7 -15
16 0 12 10 14 53 12 48 -3 52 -5 55 -30z m-338 -93 c0 -73 -1 -75 -25 -75 -24
0 -25 2 -25 75 0 73 1 75 25 75 24 0 25 -2 25 -75z m120 0 c0 -67 -2 -75 -19
-75 -22 0 -31 26 -31 91 0 50 5 59 32 59 16 0 18 -9 18 -75z m125 0 c0 -65 -2
-70 -22 -73 -21 -3 -23 1 -24 52 -1 31 -2 62 -3 69 -4 21 5 28 27 25 20 -3 22
-9 22 -73z m579 49 c3 -9 6 -64 6 -123 l0 -108 70 -59 71 -59 -3 -145 c-2
-130 0 -145 15 -148 21 -4 34 25 18 41 -7 7 -11 56 -11 133 l0 122 -70 63 -70
62 0 118 c0 70 4 119 10 119 17 0 30 -38 30 -87 0 -41 4 -51 29 -68 15 -11 49
-36 75 -55 l48 -35 -4 -145 c-2 -128 -1 -145 14 -148 24 -5 32 15 19 47 -7 16
-11 68 -9 125 l3 97 37 -28 37 -28 1 -327 c0 -181 -2 -328 -5 -328 -3 0 -55
51 -115 112 l-110 113 0 133 c0 148 4 139 -87 209 l-33 25 0 194 c0 159 3 194
14 194 8 0 17 -7 20 -16z m-1336 -327 c2 -12 -3 -17 -17 -17 -12 0 -21 6 -21
13 0 31 32 34 38 4z m1400 -920 c2 -12 -3 -17 -17 -17 -12 0 -21 6 -21 13 0
31 32 34 38 4z"/>
<path d="M190 3011 c-56 -32 -103 -51 -138 -56 l-52 -7 0 -79 0 -80 24 18 c28
21 264 253 256 252 -3 0 -43 -22 -90 -48z"/>
<path d="M1904 2973 c-3 -10 -14 -37 -25 -61 -17 -38 -19 -67 -19 -261 l0
-219 65 -115 c36 -63 65 -122 65 -130 0 -17 18 -26 38 -20 18 7 14 41 -6 47
-10 3 -46 56 -80 116 l-62 110 0 215 c0 197 2 217 20 249 12 19 27 37 35 40 8
3 15 15 15 26 0 25 -38 28 -46 3z"/>
<path d="M3355 2916 c-159 -35 -308 -66 -330 -70 -22 -4 -45 -10 -52 -14 -6
-4 -12 -38 -14 -76 l-4 -69 107 -47 c58 -26 131 -58 162 -70 l55 -23 40 36
c53 48 107 64 169 49 26 -5 48 -10 48 -9 6 7 156 271 161 282 5 14 -32 76 -45
74 -4 0 -137 -29 -297 -63z"/>
<path d="M144 2796 c-82 -79 -146 -147 -141 -152 4 -4 72 56 150 134 l144 142
134 0 134 0 83 -195 c45 -107 82 -204 82 -214 0 -24 13 -33 34 -25 20 8 21 30
0 42 -8 5 -52 94 -96 198 -44 104 -85 195 -90 202 -8 8 -50 12 -147 12 l-138
0 -149 -144z"/>
<path d="M3650 2753 l-85 -148 32 -49 c27 -40 33 -58 33 -103 0 -30 -7 -67
-14 -82 -18 -33 -76 -86 -105 -96 -25 -8 -25 -7 -6 -137 8 -57 20 -137 26
-178 6 -41 12 -89 15 -106 4 -27 10 -33 37 -38 81 -15 130 -120 92 -199 -17
-37 -69 -77 -99 -77 -9 0 -16 -3 -16 -6 0 -9 -69 -536 -74 -564 -4 -20 2 -29
25 -42 65 -38 75 -129 20 -182 -85 -81 -222 0 -191 114 11 41 50 80 81 80 10
0 20 4 23 9 7 11 76 524 76 563 0 21 -6 29 -24 34 -32 8 -71 51 -85 95 -9 29
-9 45 2 78 l15 41 -142 133 c-262 247 -241 231 -268 213 l-24 -16 61 -272 c33
-150 64 -279 68 -285 5 -7 17 -13 27 -13 11 0 34 -13 52 -29 29 -26 33 -35 33
-81 0 -46 -4 -55 -32 -81 -57 -50 -112 -48 -165 8 -18 19 -23 36 -23 75 0 45
4 53 37 82 l36 32 -62 279 c-54 243 -65 280 -82 283 -10 1 -35 7 -56 14 l-36
11 -159 -128 c-87 -70 -164 -134 -172 -141 -12 -11 -12 -21 4 -69 14 -47 15
-63 5 -103 -25 -101 -90 -160 -188 -171 l-57 -6 -52 -225 c-28 -124 -52 -233
-52 -244 -1 -10 10 -29 23 -41 l24 -23 111 67 c106 63 111 67 111 99 0 50 28
91 72 104 30 9 40 18 47 42 4 17 34 122 66 234 l57 203 -20 22 c-30 33 -35 62
-17 97 39 76 155 53 155 -31 0 -43 -16 -69 -53 -84 -30 -12 -34 -20 -66 -137
-19 -67 -49 -173 -66 -235 -31 -112 -31 -112 -12 -132 20 -19 20 -19 69 0 92
36 125 57 132 83 8 34 50 45 76 21 43 -38 8 -103 -47 -91 -21 5 -51 -3 -108
-27 -72 -31 -79 -36 -89 -71 -22 -77 -96 -111 -153 -71 -20 14 -28 11 -135
-54 -98 -60 -113 -72 -110 -92 2 -13 7 -27 10 -31 8 -7 575 -178 592 -178 6 0
20 9 32 20 12 11 35 20 50 20 31 0 30 -1 74 123 22 62 23 70 9 90 -22 31 -19
53 12 76 28 23 59 20 81 -7 20 -27 14 -57 -20 -88 -24 -21 -41 -53 -62 -115
l-30 -86 22 -28 c31 -40 29 -95 -4 -129 -37 -36 -104 -37 -140 -1 -14 14 -33
25 -42 25 -9 0 -88 -10 -176 -22 -139 -20 -159 -25 -166 -43 -24 -63 -28 -57
102 -154 109 -82 125 -91 154 -85 25 4 37 1 53 -15 41 -41 18 -104 -37 -104
-40 0 -62 19 -62 53 0 24 -18 41 -127 123 l-127 95 -30 -19 c-42 -25 -121 -25
-163 1 -81 49 -102 158 -43 232 l19 25 -29 47 c-26 40 -34 46 -65 46 l-35 0 0
-178 c0 -127 -4 -183 -12 -194 -7 -9 -114 -65 -238 -124 l-225 -107 -83 28
c-114 39 -135 56 -60 48 l56 -6 99 69 c83 58 94 69 73 72 -14 1 -113 6 -220
10 l-195 9 -143 88 c-79 48 -141 89 -138 92 2 2 59 -18 125 -46 115 -47 125
-50 174 -41 29 4 88 14 132 20 44 7 117 18 162 26 76 12 89 12 209 -11 71 -14
137 -25 149 -25 20 0 -6 28 -161 173 l-40 37 -195 -31 -194 -31 -90 27 c-49
14 -127 37 -172 51 l-81 25 -96 162 c-53 89 -93 163 -87 165 5 2 59 -20 120
-47 l111 -50 207 39 c115 22 212 40 217 40 5 0 7 2 5 5 -7 6 -563 125 -586
125 -12 0 -85 72 -190 188 -94 103 -183 198 -198 212 l-28 25 7 -45 c4 -25 18
-110 31 -190 90 -557 106 -663 103 -683 -2 -17 -47 32 -207 233 -112 140 -207
260 -212 265 -4 6 -12 64 -19 130 -10 115 -52 508 -68 645 l-8 65 -67 -207
-67 -206 0 -816 0 -816 1600 0 c998 0 1600 4 1600 10 0 5 -7 7 -15 4 -19 -8
-20 16 -2 40 12 16 14 14 30 -18 17 -37 41 -50 35 -18 -2 9 -10 16 -16 14 -16
-3 -15 21 0 36 20 20 26 14 34 -30 l8 -43 6 39 c10 73 63 74 64 1 1 -31 3 -33
14 -18 6 9 10 25 6 35 -4 14 0 18 20 18 30 0 32 -8 11 -36 -21 -28 -18 -37 7
-20 28 20 57 20 64 1 5 -12 26 -15 110 -14 61 1 104 5 104 11 0 6 -7 7 -16 4
-13 -5 -15 -2 -10 16 3 13 6 26 6 31 0 18 19 4 30 -23 17 -42 27 -45 22 -6 -5
41 17 63 48 46 15 -8 25 -8 34 -1 17 14 26 4 27 -28 l1 -26 7 25 c8 30 36 37
61 15 10 -9 26 -15 37 -13 18 3 20 -3 8 -34 -5 -13 -2 -18 11 -17 11 0 14 3 6
6 -18 7 -4 23 20 23 14 0 18 -5 14 -15 -3 -8 -1 -15 4 -15 6 0 10 312 10 860
l0 860 -24 0 c-15 0 -27 -7 -30 -17 -3 -10 -30 -102 -61 -206 l-56 -187 20
-27 c26 -33 26 -53 0 -87 -15 -19 -30 -26 -54 -26 -83 0 -99 110 -20 140 18 7
28 23 41 67 9 32 36 123 60 203 40 134 42 146 26 155 -42 25 -101 96 -108 130
-17 95 18 185 88 224 60 33 58 29 43 106 -8 39 -39 209 -70 379 -30 170 -57
311 -58 313 -2 1 -17 5 -33 9 -29 6 -31 3 -114 -143z"/>
<path d="M1908 2684 l4 -197 36 -55 c19 -31 38 -70 42 -87 7 -33 36 -46 47
-19 4 10 -1 22 -14 33 -11 9 -37 46 -57 82 l-36 66 0 164 c0 108 4 169 11 176
14 14 3 33 -19 33 -16 0 -17 -17 -14 -196z"/>
<path d="M197 2763 c-56 -54 -124 -120 -151 -145 -27 -25 -47 -50 -45 -56 2
-6 72 54 154 134 l150 144 106 -1 c59 -1 111 -4 116 -8 4 -3 46 -95 92 -204
l84 -197 336 1 c185 0 350 3 367 6 25 4 35 14 57 59 l27 54 100 0 c55 0 100
-4 100 -9 0 -13 34 -23 53 -15 22 8 30 39 17 64 -14 26 -56 26 -70 0 -10 -18
-21 -20 -110 -20 l-100 0 -30 -60 -30 -60 -353 0 -353 0 -84 200 -84 200 -70
0 c-39 0 -95 3 -124 6 l-52 7 -103 -100z m1548 -183 c4 -6 1 -17 -5 -26 -10
-11 -16 -12 -26 -3 -11 9 -11 15 -3 25 14 17 25 18 34 4z"/>
<path d="M277 2783 c-4 -3 -7 -14 -7 -24 0 -10 -7 -22 -15 -26 -25 -15 -256
-246 -253 -255 2 -4 66 51 144 124 77 73 149 138 159 144 12 6 16 16 12 27 -6
17 -28 23 -40 10z"/>
<path d="M936 2722 c-4 -7 -18 -12 -30 -12 -30 0 -47 -21 -42 -51 3 -13 5 -43
5 -66 1 -41 2 -43 31 -43 17 0 30 -5 30 -10 0 -6 8 -5 20 2 15 10 25 10 37 2
13 -8 23 -8 35 0 13 8 23 8 37 -1 10 -7 22 -9 26 -5 3 4 49 8 102 9 52 1 100
6 105 11 5 5 8 40 6 78 l-3 69 -40 3 c-22 2 -45 8 -52 14 -9 7 -13 7 -13 -1 0
-14 -33 -14 -47 0 -8 8 -13 8 -17 0 -10 -15 -43 -14 -50 2 -5 10 -7 10 -12 0
-7 -16 -36 -17 -52 -1 -9 9 -12 9 -12 0 0 -16 -47 -16 -52 0 -3 9 -6 9 -12 0z
m344 -41 c0 -5 -9 -15 -21 -22 -16 -11 -19 -20 -14 -42 4 -15 13 -27 21 -27 8
0 14 -4 14 -10 0 -6 -67 -10 -177 -11 -98 -1 -185 -2 -193 -3 -20 -1 -28 20
-29 77 l-1 47 200 0 c110 0 200 -4 200 -9z m0 -53 c0 -18 -2 -20 -9 -8 -6 8
-7 18 -5 22 9 14 14 9 14 -14z"/>
<path d="M323 2647 c-18 -7 -68 -52 -117 -107 l-86 -94 -1 -91 c0 -49 -3 -120
-8 -158 -7 -64 -10 -70 -59 -120 -29 -29 -52 -59 -52 -67 1 -8 29 16 64 53
l63 68 6 155 6 154 93 100 93 100 62 0 63 0 31 -62 c18 -35 38 -81 44 -103 13
-43 38 -57 49 -28 5 11 0 23 -13 33 -10 8 -38 52 -60 98 l-41 82 -53 -1 c-28
0 -66 -5 -84 -12z"/>
<path d="M2930 2650 c0 -4 -23 -33 -50 -63 l-51 -55 38 -76 c37 -74 38 -76 75
-76 48 0 78 -12 108 -44 14 -14 30 -26 36 -26 6 0 48 17 94 38 l83 38 1 65 2
65 -86 36 c-47 20 -122 52 -167 72 -46 19 -83 31 -83 26z"/>
<path d="M2384 2595 c-14 -9 -23 -30 -27 -57 -4 -30 -14 -50 -34 -68 l-29 -25
13 -254 c7 -140 14 -255 16 -256 1 -1 14 -5 28 -8 l26 -7 92 290 c51 159 89
294 86 300 -3 5 -12 10 -20 10 -7 0 -35 20 -63 45 -56 50 -59 51 -88 30z"/>
<path d="M2100 2133 l1 -408 18 53 c23 66 59 104 123 132 l49 21 -5 67 c-4 37
-11 153 -17 257 -6 105 -15 192 -20 193 -21 8 -69 55 -69 67 0 15 -22 25 -56
25 l-24 0 0 -407z"/>
<path d="M2765 2508 c-10 -6 -53 -13 -94 -14 l-76 -3 -27 -83 c-15 -46 -56
-175 -92 -288 l-66 -205 32 -27 c18 -15 35 -28 38 -28 3 0 73 54 155 121 83
67 160 128 173 138 22 16 22 18 7 53 -8 21 -15 49 -15 63 0 32 36 104 55 112
8 3 15 11 15 17 0 19 -68 156 -77 156 -5 0 -17 -6 -28 -12z"/>
<path d="M17 2346 c-11 -8 -17 -26 -16 -47 l0 -34 20 44 c22 50 21 55 -4 37z"/>
<path d="M3189 2316 l-94 -42 -6 -49 c-3 -28 -9 -57 -13 -66 -5 -11 29 -49
126 -140 73 -68 158 -148 190 -177 l56 -53 34 18 34 18 -31 219 -30 219 -30 4
c-44 6 -92 32 -119 63 l-23 28 -94 -42z"/>
<path d="M3899 2057 c-37 -24 -79 -97 -79 -137 0 -40 42 -113 79 -137 19 -13
49 -23 67 -23 l34 0 0 160 0 160 -34 0 c-18 0 -48 -10 -67 -23z"/>
<path d="M730 1875 c0 -18 5 -25 19 -25 11 0 23 5 26 10 8 13 81 13 107 -1 16
-9 24 -8 36 5 27 27 3 37 -66 28 -34 -5 -67 -5 -74 0 -26 16 -48 9 -48 -17z"/>
<path d="M2265 1883 c-62 -15 -124 -101 -125 -172 0 -45 35 -116 68 -140 69
-49 170 -46 227 6 141 131 18 352 -170 306z"/>
<path d="M2101 1353 c-1 -333 0 -343 18 -343 11 0 22 8 25 18 2 9 28 120 57
246 50 219 52 230 34 240 -51 30 -106 91 -119 135 -13 42 -15 15 -15 -296z"/>
<path d="M3094 1480 c-29 -11 -54 -49 -54 -78 0 -31 52 -82 84 -82 14 0 37 11
52 24 69 59 1 171 -82 136z"/>
<path d="M3415 898 c-55 -30 -62 -92 -14 -132 35 -30 49 -32 88 -11 50 25 57
91 15 130 -29 27 -57 31 -89 13z"/>
<path d="M1385 871 c-15 -14 -271 -25 -279 -12 -10 15 -43 14 -49 -2 -3 -8 -1
-20 3 -28 8 -11 15 -11 45 0 25 9 80 12 178 10 140 -3 142 -3 145 19 3 16 -2
22 -15 22 -11 0 -23 -4 -28 -9z"/>
<path d="M2217 817 c-13 -21 -13 -26 9 -64 l24 -40 68 4 c58 4 71 2 101 -19
28 -19 62 -65 73 -100 4 -12 337 37 350 50 8 8 7 13 -3 16 -39 15 -587 176
-596 176 -6 0 -17 -10 -26 -23z"/>
<path d="M2284 676 c-76 -34 -100 -133 -48 -195 57 -68 170 -56 207 22 21 44
21 70 1 112 -28 60 -101 87 -160 61z"/>
<path d="M3300 35 c0 -19 5 -35 10 -35 6 0 10 16 10 35 0 19 -4 35 -10 35 -5
0 -10 -16 -10 -35z"/>
<path d="M3738 64 c-2 -5 -3 -15 -2 -21 1 -7 2 -20 3 -28 2 -24 21 -17 21 8 0
25 -15 53 -22 41z"/>
<path d="M3856 54 c-9 -24 -7 -54 4 -54 6 0 10 16 10 35 0 38 -4 44 -14 19z"/>
<path d="M3780 25 c0 -14 4 -25 10 -25 5 0 9 11 8 25 -3 33 -18 33 -18 0z"/>
<path d="M3897 23 c-4 -3 -7 -11 -7 -17 0 -6 5 -5 12 2 6 6 9 14 7 17 -3 3 -9
2 -12 -2z"/>
</g>
</svg>
